STARTFONT 2.1
COMMENT the Lisp Machine name for this font was "25fqxb.ast"
FONT fqxb-25.bdf
SIZE 24 75 75
FONTBOUNDINGBOX 22 20 0 0
STARTPROPERTIES 3
FONT_DESCENT 5
FONT_ASCENT 20
COPYRIGHT "Public domain font.  Share and enjoy."
ENDPROPERTIES
CHARS 127
STARTCHAR C001
ENCODING 1
SWIDTH 916 0
DWIDTH 22 0
BBX 22 25 0 -5
BITMAP
0f80
0f80
0f80
0f80
0f80
0f80
0f80
0f80
8f88
cf98
efb8
fff8
fff8
fff8
7ff0
3fe0
1fc0
0f80
0700
0200
0000
0000
0000
0000
0000
ENDCHAR
STARTCHAR C002
ENCODING 2
SWIDTH 916 0
DWIDTH 22 0
BBX 22 25 0 -5
BITMAP
000000
000000
000000
000000
000000
000000
000000
000000
0ff3e0
3fffc0
7fffc0
fc7f00
f83e00
f83e00
f83e00
f83e00
f83e00
fc7f00
7fff80
3ff7c0
0fc3e0
000000
000000
000000
000000
ENDCHAR
STARTCHAR C003
ENCODING 3
SWIDTH 916 0
DWIDTH 22 0
BBX 22 25 0 -5
BITMAP
0000
0000
0000
0fc0
3ff0
7ff8
f87c
f87c
f87c
fff8
fff0
fffc
f87e
f83e
f83e
f83e
f87e
fffc
fff8
ffe0
f800
f800
f800
0000
0000
ENDCHAR
STARTCHAR C004
ENCODING 4
SWIDTH 916 0
DWIDTH 22 0
BBX 22 25 0 -5
BITMAP
000000
000000
000000
000000
01f000
01f000
03f800
03f800
07fc00
07fc00
0ffe00
1fbf00
1fbf00
3f1f80
7e0fc0
7e0fc0
fc07e0
000000
000000
000000
000000
000000
000000
000000
000000
ENDCHAR
STARTCHAR C005
ENCODING 5
SWIDTH 916 0
DWIDTH 22 0
BBX 22 25 0 -5
BITMAP
000000
000000
000000
000000
000000
000000
ffffe0
ffffe0
ffffe0
ffffe0
0007e0
0007e0
0007e0
0007e0
000000
000000
000000
000000
000000
000000
000000
000000
000000
000000
000000
ENDCHAR
STARTCHAR C006
ENCODING 6
SWIDTH 916 0
DWIDTH 22 0
BBX 22 25 0 -5
BITMAP
0000
0000
0000
0000
0000
0000
0000
0ffc
3ffc
7ffc
fc00
f800
ffc0
ffc0
ffc0
f800
fc00
7ffc
3ffc
0ffc
0000
0000
0000
0000
0000
ENDCHAR
STARTCHAR C007
ENCODING 7
SWIDTH 916 0
DWIDTH 22 0
BBX 22 25 0 -5
BITMAP
000000
000000
000000
000000
000000
000000
000000
1e0060
7ff1e0
ffffe0
efffe0
8f1f00
0f1e00
0f1e00
1e1e00
1e1e00
1e1e00
3c1e00
3c1e00
3c1e00
000000
000000
000000
000000
000000
ENDCHAR
STARTCHAR C010
ENCODING 8
SWIDTH 916 0
DWIDTH 22 0
BBX 22 25 0 -5
BITMAP
0000
7c00
7c00
3e00
1f00
1f80
0f80
07c0
07e0
03e0
03f0
07f0
0ff8
1ff8
3e7c
7c7c
7c7c
f83e
f81f
f81f
0000
0000
0000
0000
0000
ENDCHAR
STARTCHAR C011
ENCODING 9
SWIDTH 916 0
DWIDTH 22 0
BBX 22 25 0 -5
BITMAP
000000
000000
000000
000000
000000
000000
000000
f801e0
7c03e0
3e07c0
1f0780
0f8f80
07df00
03fe00
01fc00
00f800
01f000
01e000
03e000
03c000
07c000
078000
0f8000
1f0000
3e0000
ENDCHAR
STARTCHAR C012
ENCODING 10
SWIDTH 916 0
DWIDTH 22 0
BBX 22 25 0 -5
BITMAP
0000
0000
0000
0000
07f0
1ff0
3ff0
3e00
3e00
3e00
1ff8
7ffc
fffe
f83e
f01e
f01e
f83e
fffe
7ffc
1ff0
0000
0000
0000
0000
0000
ENDCHAR
STARTCHAR C013
ENCODING 11
SWIDTH 916 0
DWIDTH 22 0
BBX 22 25 0 -5
BITMAP
0200
0700
0f80
1fc0
3fe0
7ff0
fff8
fff8
fff8
efb8
cf98
8f88
0f80
0f80
0f80
0f80
0f80
0f80
0f80
0f80
0000
0000
0000
0000
0000
ENDCHAR
STARTCHAR C014
ENCODING 12
SWIDTH 916 0
DWIDTH 22 0
BBX 22 25 0 -5
BITMAP
000000
000000
03e000
03e000
03e000
03e000
03e000
ffff80
ffff80
ffff80
ffff80
03e000
03e000
03e000
03e000
ffff80
ffff80
ffff80
ffff80
000000
000000
000000
000000
000000
000000
ENDCHAR
STARTCHAR C015
ENCODING 13
SWIDTH 916 0
DWIDTH 22 0
BBX 22 25 0 -5
BITMAP
000000
000000
000000
1ffe00
7fff80
ffffc0
f1e3c0
f1e3c0
f1e3c0
ffffc0
ffffc0
ffffc0
f1e3c0
f1e3c0
f1e3c0
ffffc0
7fff80
1ffe00
000000
000000
000000
000000
000000
000000
000000
ENDCHAR
STARTCHAR C016
ENCODING 14
SWIDTH 916 0
DWIDTH 22 0
BBX 22 25 0 -5
BITMAP
000000
000000
000000
000000
000000
000000
1f1f00
7fbfc0
ffffe0
f1f1e0
f1f1e0
f1f1e0
ffffe0
7fbfc0
1f1f00
000000
000000
000000
000000
000000
000000
000000
000000
000000
000000
ENDCHAR
STARTCHAR C017
ENCODING 15
SWIDTH 916 0
DWIDTH 22 0
BBX 22 25 0 -5
BITMAP
0000
0000
0000
0000
0fe0
3ff8
7ffc
f87e
003e
003e
07fe
1ffe
3ffe
7c3e
781e
781e
7c3e
3ffc
1ff8
07e0
0000
0000
0000
0000
0000
ENDCHAR
STARTCHAR C020
ENCODING 16
SWIDTH 916 0
DWIDTH 22 0
BBX 22 25 0 -5
BITMAP
000000
000000
000000
000000
000000
0fff80
3fff80
7fff80
ffff80
fc0000
f80000
f80000
f80000
f80000
fc0000
ffff80
7fff80
3fff80
0fff80
000000
000000
000000
000000
000000
000000
ENDCHAR
STARTCHAR C021
ENCODING 17
SWIDTH 916 0
DWIDTH 22 0
BBX 22 25 0 -5
BITMAP
000000
000000
000000
000000
000000
fff800
fffe00
ffff00
ffff80
001f80
000f80
000f80
000f80
000f80
001f80
ffff80
ffff00
fffe00
fff800
000000
000000
000000
000000
000000
000000
ENDCHAR
STARTCHAR C022
ENCODING 18
SWIDTH 916 0
DWIDTH 22 0
BBX 22 25 0 -5
BITMAP
0000
0000
0000
f83e
f83e
f83e
f83e
f83e
f83e
f83e
f83e
f83e
f83e
f83e
fc7e
fffe
7ffc
3ff8
0fe0
0000
0000
0000
0000
0000
0000
ENDCHAR
STARTCHAR C023
ENCODING 19
SWIDTH 916 0
DWIDTH 22 0
BBX 22 25 0 -5
BITMAP
0000
0fe0
3ff8
7ffc
fffe
fc7e
f83e
f83e
f83e
f83e
f83e
f83e
f83e
f83e
f83e
f83e
f83e
0000
0000
0000
0000
0000
0000
0000
0000
ENDCHAR
STARTCHAR C024
ENCODING 20
SWIDTH 916 0
DWIDTH 22 0
BBX 22 25 0 -5
BITMAP
fc07e0
fc07e0
7e0fc0
7fffc0
7fffc0
3fff80
3fff80
3f1f80
1f1f00
1f1f00
1fbf00
0fbe00
0fbe00
0ffe00
07fc00
07fc00
07fc00
03f800
03f800
01f000
000000
000000
000000
000000
000000
ENDCHAR
STARTCHAR C025
ENCODING 21
SWIDTH 916 0
DWIDTH 22 0
BBX 22 25 0 -5
BITMAP
fffc
fffc
fffc
fffc
00fc
00fc
00fc
00fc
fffc
fffc
fffc
fffc
00fc
00fc
00fc
00fc
fffc
fffc
fffc
fffc
0000
0000
0000
0000
0000
ENDCHAR
STARTCHAR C026
ENCODING 22
SWIDTH 916 0
DWIDTH 22 0
BBX 22 25 0 -5
BITMAP
000000
000000
000000
1ffe00
7fff80
ffffc0
fe1fc0
ff3fc0
f7fbc0
f3f3c0
f1e3c0
f3f3c0
f7fbc0
ff3fc0
fe1fc0
ffffc0
7fff80
1ffe00
000000
000000
000000
000000
000000
000000
000000
ENDCHAR
STARTCHAR C027
ENCODING 23
SWIDTH 916 0
DWIDTH 22 0
BBX 22 25 0 -5
BITMAP
000000
000000
000000
000000
020400
060600
0e0700
1e0780
3fffc0
7fffe0
fffff0
7fffe0
3fffc0
1e0780
0e0700
060600
020400
000000
000000
000000
000000
000000
000000
000000
000000
ENDCHAR
STARTCHAR C030
ENCODING 24
SWIDTH 916 0
DWIDTH 22 0
BBX 22 25 0 -5
BITMAP
000000
000000
000000
000000
03f000
07e000
0fc000
1f8000
3ffff0
7ffff0
fffff0
7ffff0
3ffff0
1f8000
0fc000
07e000
03f000
000000
000000
000000
000000
000000
000000
000000
000000
ENDCHAR
STARTCHAR C031
ENCODING 25
SWIDTH 916 0
DWIDTH 22 0
BBX 22 25 0 -5
BITMAP
000000
000000
000000
000000
00fc00
007e00
003f00
001f80
ffffc0
ffffe0
fffff0
ffffe0
ffffc0
001f80
003f00
007e00
00fc00
000000
000000
000000
000000
000000
000000
000000
000000
ENDCHAR
STARTCHAR C032
ENCODING 26
SWIDTH 916 0
DWIDTH 22 0
BBX 22 25 0 -5
BITMAP
000000
0001e0
0003e0
0007c0
000f80
ffffe0
ffffe0
ffffe0
ffffe0
00f800
01f000
03e000
ffffe0
ffffe0
ffffe0
ffffe0
3e0000
7c0000
f80000
f00000
000000
000000
000000
000000
000000
ENDCHAR
STARTCHAR C033
ENCODING 27
SWIDTH 916 0
DWIDTH 22 0
BBX 22 25 0 -5
BITMAP
004000
00e000
01f000
03f800
07fc00
0ffe00
1fbf00
3f1f80
7e0fc0
fc07e0
7e0fc0
3f1f80
1fbf00
0ffe00
07fc00
03f800
01f000
00e000
004000
000000
000000
000000
000000
000000
000000
ENDCHAR
STARTCHAR C034
ENCODING 28
SWIDTH 916 0
DWIDTH 22 0
BBX 22 25 0 -5
BITMAP
0003c0
000fe0
003ff0
00ffc0
03ff00
0ffc00
3ff000
ffc000
3ff000
0ffc00
03ff00
00ffc0
003ff0
000fe0
0003c0
000000
fffff0
fffff0
fffff0
fffff0
000000
000000
000000
000000
000000
ENDCHAR
STARTCHAR C035
ENCODING 29
SWIDTH 916 0
DWIDTH 22 0
BBX 22 25 0 -5
BITMAP
3c0000
7f0000
ffc000
3ff000
0ffc00
03ff00
00ffc0
003ff0
00ffc0
03ff00
0ffc00
3ff000
ffc000
7f0000
3c0000
000000
fffff0
fffff0
fffff0
fffff0
000000
000000
000000
000000
000000
ENDCHAR
STARTCHAR C036
ENCODING 30
SWIDTH 916 0
DWIDTH 22 0
BBX 22 25 0 -5
BITMAP
000000
000000
000000
ffffe0
ffffe0
ffffe0
ffffe0
000000
000000
ffffe0
ffffe0
ffffe0
ffffe0
000000
000000
ffffe0
ffffe0
ffffe0
ffffe0
000000
000000
000000
000000
000000
000000
ENDCHAR
STARTCHAR C037
ENCODING 31
SWIDTH 916 0
DWIDTH 22 0
BBX 22 25 0 -5
BITMAP
000000
000000
000000
000000
fc07e0
7e0fc0
7e0fc0
3f1f80
1fbf00
1fbf00
0ffe00
07fc00
07fc00
03f800
03f800
01f000
01f000
000000
000000
000000
000000
000000
000000
000000
000000
ENDCHAR
STARTCHAR C040
ENCODING 32
SWIDTH 916 0
DWIDTH 22 0
BBX 22 25 0 -5
BITMAP
00
00
00
00
00
00
00
00
00
00
00
00
00
00
00
00
00
00
00
00
00
00
00
00
00
ENDCHAR
STARTCHAR !
ENCODING 33
SWIDTH 916 0
DWIDTH 22 0
BBX 22 25 0 -5
BITMAP
ffc0
ffc0
ffc0
7f80
7f80
7f80
7f80
3f00
3f00
3f00
3f00
1e00
1e00
0000
0000
3f00
7f80
7f80
7f80
3f00
0000
0000
0000
0000
0000
ENDCHAR
STARTCHAR "
ENCODING 34
SWIDTH 916 0
DWIDTH 22 0
BBX 22 25 0 -5
BITMAP
f8f8
f8f8
f8f8
f8f8
f8f8
f8f8
f8f8
0000
0000
0000
0000
0000
0000
0000
0000
0000
0000
0000
0000
0000
0000
0000
0000
0000
0000
ENDCHAR
STARTCHAR #
ENCODING 35
SWIDTH 916 0
DWIDTH 22 0
BBX 22 25 0 -5
BITMAP
1f1f00
1f1f00
1f1f00
1f1f00
ffffe0
ffffe0
ffffe0
ffffe0
1f1f00
1f1f00
1f1f00
1f1f00
ffffe0
ffffe0
ffffe0
ffffe0
1f1f00
1f1f00
1f1f00
1f1f00
000000
000000
000000
000000
000000
ENDCHAR
STARTCHAR $
ENCODING 36
SWIDTH 916 0
DWIDTH 22 0
BBX 22 25 0 -5
BITMAP
01f000
01f000
1fff00
3fff80
7fffc0
f9f3e0
f9f000
f9f000
fffe00
7fff80
3fffc0
0fffe0
01f3e0
01f3e0
f9f3e0
7fffc0
3fff80
1fff00
01f000
01f000
000000
000000
000000
000000
000000
ENDCHAR
STARTCHAR %
ENCODING 37
SWIDTH 916 0
DWIDTH 22 0
BBX 22 25 0 -5
BITMAP
1c01f0
7f01f0
ff81f0
e383e0
e387c0
e38f80
ff9f00
7f3e00
1c7c00
00f800
01f000
03e380
07cfe0
0f9ff0
1f1c70
3e1c70
7c1c70
f81ff0
f80fe0
f80380
000000
000000
000000
000000
000000
ENDCHAR
STARTCHAR &
ENCODING 38
SWIDTH 916 0
DWIDTH 22 0
BBX 22 25 0 -5
BITMAP
1fc000
7ff000
fff800
f8f800
f8f800
f8f800
fdf000
7fe000
3fc000
1f8000
3fc000
7fe000
fdf7e0
f9ffc0
f8ff80
f87f00
fcff00
ffff80
7fffc0
1fc7e0
000000
000000
000000
000000
000000
ENDCHAR
STARTCHAR '
ENCODING 39
SWIDTH 916 0
DWIDTH 22 0
BBX 22 25 0 -5
BITMAP
1f80
1f80
3f00
3f00
7e00
7e00
fc00
fc00
0000
0000
0000
0000
0000
0000
0000
0000
0000
0000
0000
0000
0000
0000
0000
0000
0000
ENDCHAR
STARTCHAR (
ENCODING 40
SWIDTH 916 0
DWIDTH 22 0
BBX 22 25 0 -5
BITMAP
07e0
0fc0
1f80
3f00
3f00
7e00
7e00
fc00
fc00
fc00
fc00
fc00
fc00
7e00
7e00
3f00
3f00
1f80
0fc0
07e0
0000
0000
0000
0000
0000
ENDCHAR
STARTCHAR )
ENCODING 41
SWIDTH 916 0
DWIDTH 22 0
BBX 22 25 0 -5
BITMAP
fc00
7e00
3f00
1f80
1f80
0fc0
0fc0
07e0
07e0
07e0
07e0
07e0
07e0
0fc0
0fc0
1f80
1f80
3f00
7e00
fc00
0000
0000
0000
0000
0000
ENDCHAR
STARTCHAR *
ENCODING 42
SWIDTH 916 0
DWIDTH 22 0
BBX 22 25 0 -5
BITMAP
004000
00e000
00e000
01f000
03f800
ffffe0
ffffe0
7fffc0
3fff80
1fff00
1fff00
3fff80
7fffc0
ffffe0
ffffe0
03f800
01f000
00e000
00e000
004000
000000
000000
000000
000000
000000
ENDCHAR
STARTCHAR +
ENCODING 43
SWIDTH 916 0
DWIDTH 22 0
BBX 22 25 0 -5
BITMAP
000000
000000
03e000
03e000
03e000
03e000
03e000
03e000
ffff80
ffff80
ffff80
ffff80
03e000
03e000
03e000
03e000
03e000
03e000
000000
000000
000000
000000
000000
000000
000000
ENDCHAR
STARTCHAR ,
ENCODING 44
SWIDTH 916 0
DWIDTH 22 0
BBX 22 25 0 -5
BITMAP
00
00
00
00
00
00
00
00
00
00
00
00
00
00
00
7e
ff
ff
ff
7f
1e
1c
38
60
00
ENDCHAR
STARTCHAR -
ENCODING 45
SWIDTH 916 0
DWIDTH 22 0
BBX 22 25 0 -5
BITMAP
000000
000000
000000
000000
000000
000000
000000
000000
ffffc0
ffffc0
ffffc0
ffffc0
000000
000000
000000
000000
000000
000000
000000
000000
000000
000000
000000
000000
000000
ENDCHAR
STARTCHAR .
ENCODING 46
SWIDTH 916 0
DWIDTH 22 0
BBX 22 25 0 -5
BITMAP
00
00
00
00
00
00
00
00
00
00
00
00
00
00
00
7e
ff
ff
ff
7e
00
00
00
00
00
ENDCHAR
STARTCHAR /
ENCODING 47
SWIDTH 916 0
DWIDTH 22 0
BBX 22 25 0 -5
BITMAP
0007e0
000fc0
000fc0
001f80
003f00
003f00
007e00
00fc00
00fc00
01f800
03f000
07e000
07e000
0fc000
1f8000
1f8000
3f0000
7e0000
7e0000
fc0000
000000
000000
000000
000000
000000
ENDCHAR
STARTCHAR 0
ENCODING 48
SWIDTH 916 0
DWIDTH 22 0
BBX 22 25 0 -5
BITMAP
07fc00
1fff00
7fffc0
ffffe0
fe07e0
fc0fe0
fc1fe0
fc3fe0
fc7fe0
fcf7e0
fde7e0
ffc7e0
ff87e0
ff07e0
fe07e0
fc0fe0
ffffe0
7fffc0
1fff00
07fc00
000000
000000
000000
000000
000000
ENDCHAR
STARTCHAR 1
ENCODING 49
SWIDTH 916 0
DWIDTH 22 0
BBX 22 25 0 -5
BITMAP
1fc0
3fc0
7fc0
ffc0
0fc0
0fc0
0fc0
0fc0
0fc0
0fc0
0fc0
0fc0
0fc0
0fc0
0fc0
0fc0
7ff8
7ff8
7ff8
7ff8
0000
0000
0000
0000
0000
ENDCHAR
STARTCHAR 2
ENCODING 50
SWIDTH 916 0
DWIDTH 22 0
BBX 22 25 0 -5
BITMAP
07fc00
1fff00
7fffc0
ffffe0
fe0fe0
fc07e0
000fe0
001fc0
003f80
007f00
00fe00
01fc00
03f800
0fe000
1fc000
7f0000
ffffe0
ffffe0
ffffe0
ffffe0
000000
000000
000000
000000
000000
ENDCHAR
STARTCHAR 3
ENCODING 51
SWIDTH 916 0
DWIDTH 22 0
BBX 22 25 0 -5
BITMAP
07fc00
1fff00
7fffc0
ffffe0
fc0fe0
fc07e0
0007e0
000fe0
01ffc0
01ff00
01ff00
01ffc0
000fe0
0007e0
fc07e0
fc0fe0
ffffe0
7fffc0
1fff00
07fc00
000000
000000
000000
000000
000000
ENDCHAR
STARTCHAR 4
ENCODING 52
SWIDTH 916 0
DWIDTH 22 0
BBX 22 25 0 -5
BITMAP
003f00
007f00
00ff00
01ff00
03ff00
07ff00
0fff00
1fbf00
3f3f00
7e3f00
fc3f00
ffffe0
ffffe0
ffffe0
ffffe0
003f00
003f00
003f00
003f00
003f00
000000
000000
000000
000000
000000
ENDCHAR
STARTCHAR 5
ENCODING 53
SWIDTH 916 0
DWIDTH 22 0
BBX 22 25 0 -5
BITMAP
ffffe0
ffffe0
ffffe0
ffffe0
fc0000
fc0000
fc0000
fffc00
ffff00
ffffc0
ffffe0
000fe0
0007e0
0007e0
fc07e0
fe0fe0
ffffe0
7fffc0
1fff00
07fc00
000000
000000
000000
000000
000000
ENDCHAR
STARTCHAR 6
ENCODING 54
SWIDTH 916 0
DWIDTH 22 0
BBX 22 25 0 -5
BITMAP
07fc00
1fff00
7fffc0
ffffe0
fe0fe0
fc07e0
fc0000
fc0000
fffe00
ffff80
ffffc0
ffffe0
fe0fe0
fc07e0
fc07e0
fe0fe0
ffffe0
7fffc0
1fff00
07fc00
000000
000000
000000
000000
000000
ENDCHAR
STARTCHAR 7
ENCODING 55
SWIDTH 916 0
DWIDTH 22 0
BBX 22 25 0 -5
BITMAP
ffffe0
ffffe0
ffffe0
ffffe0
000fc0
000fc0
001f80
001f80
003f00
003f00
007e00
007e00
00fc00
00fc00
01f800
01f800
03f000
03f000
07e000
07e000
000000
000000
000000
000000
000000
ENDCHAR
STARTCHAR 8
ENCODING 56
SWIDTH 916 0
DWIDTH 22 0
BBX 22 25 0 -5
BITMAP
07fc00
1fff00
7fffc0
ffffe0
fe0fe0
fc07e0
fc07e0
fe0fe0
7fffc0
1fff00
1fff00
7fffc0
fe0fe0
fc07e0
fc07e0
fe0fe0
ffffe0
7fffc0
1fff00
07fc00
000000
000000
000000
000000
000000
ENDCHAR
STARTCHAR 9
ENCODING 57
SWIDTH 916 0
DWIDTH 22 0
BBX 22 25 0 -5
BITMAP
07fc00
1fff00
7fffc0
ffffe0
fe0fe0
fc07e0
fc07e0
fe0fe0
ffffe0
7fffe0
3fffe0
0fffe0
0007e0
0007e0
fc07e0
fe0fe0
ffffe0
7fffc0
1fff00
07fc00
000000
000000
000000
000000
000000
ENDCHAR
STARTCHAR :
ENCODING 58
SWIDTH 916 0
DWIDTH 22 0
BBX 22 25 0 -5
BITMAP
00
00
00
00
00
00
00
7e
ff
ff
ff
7e
00
00
00
7e
ff
ff
ff
7e
00
00
00
00
00
ENDCHAR
STARTCHAR ;
ENCODING 59
SWIDTH 916 0
DWIDTH 22 0
BBX 22 25 0 -5
BITMAP
00
00
00
00
00
00
00
7e
ff
ff
ff
7e
00
00
00
7e
ff
ff
ff
7f
1e
1c
38
60
00
ENDCHAR
STARTCHAR <
ENCODING 60
SWIDTH 916 0
DWIDTH 22 0
BBX 22 25 0 -5
BITMAP
000000
000000
000080
0003c0
000fe0
003ff0
00ffc0
03ff00
0ffc00
3ff000
ffc000
3ff000
0ffc00
03ff00
00ffc0
003ff0
000fe0
0003c0
000080
000000
000000
000000
000000
000000
000000
ENDCHAR
STARTCHAR =
ENCODING 61
SWIDTH 916 0
DWIDTH 22 0
BBX 22 25 0 -5
BITMAP
000000
000000
000000
000000
000000
ffffc0
ffffc0
ffffc0
ffffc0
000000
000000
000000
ffffc0
ffffc0
ffffc0
ffffc0
000000
000000
000000
000000
000000
000000
000000
000000
000000
ENDCHAR
STARTCHAR >
ENCODING 62
SWIDTH 916 0
DWIDTH 22 0
BBX 22 25 0 -5
BITMAP
000000
000000
100000
3c0000
7f0000
ffc000
3ff000
0ffc00
03ff00
00ffc0
003ff0
00ffc0
03ff00
0ffc00
3ff000
ffc000
7f0000
3c0000
100000
000000
000000
000000
000000
000000
000000
ENDCHAR
STARTCHAR ?
ENCODING 63
SWIDTH 916 0
DWIDTH 22 0
BBX 22 25 0 -5
BITMAP
07fc00
1fff00
7fffc0
ffffe0
fe0fe0
fc07e0
0007e0
001fe0
007fc0
01ff00
03fc00
03f800
03f000
000000
000000
03f000
07f800
07f800
07f800
03f000
000000
000000
000000
000000
000000
ENDCHAR
STARTCHAR @
ENCODING 64
SWIDTH 916 0
DWIDTH 22 0
BBX 22 25 0 -5
BITMAP
07fc00
1fff00
7fffc0
fe0fe0
f803e0
f0e1e0
f1f1e0
f3f9e0
f3b9e0
f71de0
f71de0
f3bfe0
f3ffe0
f1ffc0
f0e000
f80000
fe07e0
7fffe0
1fff80
07fe00
000000
000000
000000
000000
000000
ENDCHAR
STARTCHAR A
ENCODING 65
SWIDTH 916 0
DWIDTH 22 0
BBX 22 25 0 -5
BITMAP
01f000
03f800
03f800
07fc00
07fc00
07fc00
0ffe00
0fbe00
0fbe00
1fbf00
1f1f00
1f1f00
3f1f80
3fff80
3fff80
7fffc0
7fffc0
7e0fc0
fc07e0
fc07e0
000000
000000
000000
000000
000000
ENDCHAR
STARTCHAR B
ENCODING 66
SWIDTH 916 0
DWIDTH 22 0
BBX 22 25 0 -5
BITMAP
fffc00
ffff00
ffffc0
ffffe0
fc0fe0
fc07e0
fc07e0
fc0fe0
ffffc0
ffff00
ffff00
ffffc0
fc0fe0
fc07e0
fc07e0
fc0fe0
ffffe0
ffffc0
ffff00
fffc00
000000
000000
000000
000000
000000
ENDCHAR
STARTCHAR C
ENCODING 67
SWIDTH 916 0
DWIDTH 22 0
BBX 22 25 0 -5
BITMAP
07fc00
1fff00
7fffc0
ffffe0
fe0fe0
fc07e0
fc0000
fc0000
fc0000
fc0000
fc0000
fc0000
fc0000
fc0000
fc07e0
fe0fe0
ffffe0
7fffc0
1fff00
07fc00
000000
000000
000000
000000
000000
ENDCHAR
STARTCHAR D
ENCODING 68
SWIDTH 916 0
DWIDTH 22 0
BBX 22 25 0 -5
BITMAP
fffc00
ffff00
ffffc0
ffffe0
fc0fe0
fc07e0
fc07e0
fc07e0
fc07e0
fc07e0
fc07e0
fc07e0
fc07e0
fc07e0
fc07e0
fc0fe0
ffffe0
ffffc0
ffff00
fffc00
000000
000000
000000
000000
000000
ENDCHAR
STARTCHAR E
ENCODING 69
SWIDTH 916 0
DWIDTH 22 0
BBX 22 25 0 -5
BITMAP
ffffe0
ffffe0
ffffe0
ffffe0
fc0000
fc0000
fc0000
fc0000
fffc00
fffc00
fffc00
fffc00
fc0000
fc0000
fc0000
fc0000
ffffe0
ffffe0
ffffe0
ffffe0
000000
000000
000000
000000
000000
ENDCHAR
STARTCHAR F
ENCODING 70
SWIDTH 916 0
DWIDTH 22 0
BBX 22 25 0 -5
BITMAP
ffffe0
ffffe0
ffffe0
ffffe0
fc0000
fc0000
fc0000
fc0000
fffc00
fffc00
fffc00
fffc00
fc0000
fc0000
fc0000
fc0000
fc0000
fc0000
fc0000
fc0000
000000
000000
000000
000000
000000
ENDCHAR
STARTCHAR G
ENCODING 71
SWIDTH 916 0
DWIDTH 22 0
BBX 22 25 0 -5
BITMAP
07fc00
1fff00
7fffc0
ffffe0
fc07e0
f80000
f80000
f80000
f87fe0
f87fe0
f87fe0
f87fe0
f803e0
f803e0
f803e0
fc07e0
ffffc0
7fff80
1fff00
07fc00
000000
000000
000000
000000
000000
ENDCHAR
STARTCHAR H
ENCODING 72
SWIDTH 916 0
DWIDTH 22 0
BBX 22 25 0 -5
BITMAP
fc07e0
fc07e0
fc07e0
fc07e0
fc07e0
fc07e0
fc07e0
fc07e0
ffffe0
ffffe0
ffffe0
ffffe0
fc07e0
fc07e0
fc07e0
fc07e0
fc07e0
fc07e0
fc07e0
fc07e0
000000
000000
000000
000000
000000
ENDCHAR
STARTCHAR I
ENCODING 73
SWIDTH 916 0
DWIDTH 22 0
BBX 22 25 0 -5
BITMAP
fff0
fff0
fff0
fff0
1f80
1f80
1f80
1f80
1f80
1f80
1f80
1f80
1f80
1f80
1f80
1f80
fff0
fff0
fff0
fff0
0000
0000
0000
0000
0000
ENDCHAR
STARTCHAR J
ENCODING 74
SWIDTH 916 0
DWIDTH 22 0
BBX 22 25 0 -5
BITMAP
001f80
001f80
001f80
001f80
001f80
001f80
001f80
001f80
001f80
001f80
001f80
001f80
001f80
fc1f80
fc1f80
fe3f80
ffff80
7fff00
3ffe00
0ff800
000000
000000
000000
000000
000000
ENDCHAR
STARTCHAR K
ENCODING 75
SWIDTH 916 0
DWIDTH 22 0
BBX 22 25 0 -5
BITMAP
fc07f0
fc0fe0
fc1fc0
fc3f80
fc7f00
fcfe00
fdfc00
fff800
fff000
ffe000
ffe000
fff000
fff800
fdfc00
fcfe00
fc7f00
fc3f80
fc1fc0
fc0fe0
fc07f0
000000
000000
000000
000000
000000
ENDCHAR
STARTCHAR L
ENCODING 76
SWIDTH 916 0
DWIDTH 22 0
BBX 22 25 0 -5
BITMAP
fc0000
fc0000
fc0000
fc0000
fc0000
fc0000
fc0000
fc0000
fc0000
fc0000
fc0000
fc0000
fc0000
fc0000
fc0000
fc0000
ffffe0
ffffe0
ffffe0
ffffe0
000000
000000
000000
000000
000000
ENDCHAR
STARTCHAR M
ENCODING 77
SWIDTH 916 0
DWIDTH 22 0
BBX 22 25 0 -5
BITMAP
fc07e0
fe0fe0
ff1fe0
ffbfe0
ffffe0
ffffe0
ffffe0
ffffe0
ffffe0
fdf7e0
fce7e0
fc47e0
fc07e0
fc07e0
fc07e0
fc07e0
fc07e0
fc07e0
fc07e0
fc07e0
000000
000000
000000
000000
000000
ENDCHAR
STARTCHAR N
ENCODING 78
SWIDTH 916 0
DWIDTH 22 0
BBX 22 25 0 -5
BITMAP
fc07e0
fe07e0
fe07e0
ff07e0
ff87e0
ffc7e0
ffc7e0
ffe7e0
fff7e0
ffffe0
ffffe0
fdffe0
fcffe0
fc7fe0
fc7fe0
fc3fe0
fc1fe0
fc0fe0
fc0fe0
fc07e0
000000
000000
000000
000000
000000
ENDCHAR
STARTCHAR O
ENCODING 79
SWIDTH 916 0
DWIDTH 22 0
BBX 22 25 0 -5
BITMAP
07fc00
1fff00
7fffc0
ffffe0
fe0fe0
fc07e0
fc07e0
fc07e0
fc07e0
fc07e0
fc07e0
fc07e0
fc07e0
fc07e0
fc07e0
fe0fe0
ffffe0
7fffc0
1fff00
07fc00
000000
000000
000000
000000
000000
ENDCHAR
STARTCHAR P
ENCODING 80
SWIDTH 916 0
DWIDTH 22 0
BBX 22 25 0 -5
BITMAP
fffc00
ffff00
ffffc0
ffffc0
fc0fe0
fc07e0
fc07e0
fc07e0
fc0fe0
ffffc0
ffffc0
ffff00
fffc00
fc0000
fc0000
fc0000
fc0000
fc0000
fc0000
fc0000
000000
000000
000000
000000
000000
ENDCHAR
STARTCHAR Q
ENCODING 81
SWIDTH 916 0
DWIDTH 22 0
BBX 22 25 0 -5
BITMAP
07fc00
1fff00
7fffc0
ffffe0
fe0fe0
fc07e0
fc07e0
fc07e0
fc07e0
fc07e0
fc07e0
fc07e0
fc07e0
fcffe0
fc7fe0
fe3fc0
ffff80
7fffc0
1fffe0
07e3f0
000000
000000
000000
000000
000000
ENDCHAR
STARTCHAR R
ENCODING 82
SWIDTH 916 0
DWIDTH 22 0
BBX 22 25 0 -5
BITMAP
fffc00
ffff00
ffffc0
ffffc0
fc0fe0
fc07e0
fc07e0
fc07e0
fc0fe0
ffffc0
ffffc0
ffff00
fffe00
fc3f00
fc1f00
fc1f80
fc0f80
fc0fc0
fc07c0
fc07e0
000000
000000
000000
000000
000000
ENDCHAR
STARTCHAR S
ENCODING 83
SWIDTH 916 0
DWIDTH 22 0
BBX 22 25 0 -5
BITMAP
07fc00
1fff00
7fffc0
ffffe0
fe0fe0
fc07e0
fc0000
fe0000
7fe000
1ffc00
07ff00
00ffc0
000fe0
0007e0
fc07e0
fe0fe0
ffffe0
7fffc0
1fff00
07fc00
000000
000000
000000
000000
000000
ENDCHAR
STARTCHAR T
ENCODING 84
SWIDTH 916 0
DWIDTH 22 0
BBX 22 25 0 -5
BITMAP
ffffc0
ffffc0
ffffc0
ffffc0
03f000
03f000
03f000
03f000
03f000
03f000
03f000
03f000
03f000
03f000
03f000
03f000
03f000
03f000
03f000
03f000
000000
000000
000000
000000
000000
ENDCHAR
STARTCHAR U
ENCODING 85
SWIDTH 916 0
DWIDTH 22 0
BBX 22 25 0 -5
BITMAP
fc07e0
fc07e0
fc07e0
fc07e0
fc07e0
fc07e0
fc07e0
fc07e0
fc07e0
fc07e0
fc07e0
fc07e0
fc07e0
fc07e0
fc07e0
fe0fe0
ffffe0
7fffc0
1fff00
07fc00
000000
000000
000000
000000
000000
ENDCHAR
STARTCHAR V
ENCODING 86
SWIDTH 916 0
DWIDTH 22 0
BBX 22 25 0 -5
BITMAP
fc07e0
fc07e0
7e0fc0
7e0fc0
7e0fc0
3f1f80
3f1f80
3f1f80
1fbf00
1fbf00
1fbf00
0ffe00
0ffe00
0ffe00
07fc00
07fc00
07fc00
03f800
03f800
03f800
000000
000000
000000
000000
000000
ENDCHAR
STARTCHAR W
ENCODING 87
SWIDTH 916 0
DWIDTH 22 0
BBX 22 25 0 -5
BITMAP
fc07e0
fc07e0
fc07e0
fc07e0
7e0fc0
7e4fc0
7eefc0
7eefc0
3fff80
3fff80
3fff80
3fff80
1fff00
1fff00
1fbf00
1fbf00
0f1e00
0f1e00
0f1e00
0f1e00
000000
000000
000000
000000
000000
ENDCHAR
STARTCHAR X
ENCODING 88
SWIDTH 916 0
DWIDTH 22 0
BBX 22 25 0 -5
BITMAP
fc07e0
7e0fc0
7e0fc0
3f1f80
1fbf00
1fbf00
0ffe00
07fc00
07fc00
03f800
03f800
07fc00
07fc00
0ffe00
1fbf00
1fbf00
3f1f80
7e0fc0
7e0fc0
fc07e0
000000
000000
000000
000000
000000
ENDCHAR
STARTCHAR Y
ENCODING 89
SWIDTH 916 0
DWIDTH 22 0
BBX 22 25 0 -5
BITMAP
fc03f0
7e07e0
7e07e0
3f0fc0
1f9f80
1f9f80
0fff00
07fe00
07fe00
03fc00
01f800
01f800
01f800
01f800
01f800
01f800
01f800
01f800
01f800
01f800
000000
000000
000000
000000
000000
ENDCHAR
STARTCHAR Z
ENCODING 90
SWIDTH 916 0
DWIDTH 22 0
BBX 22 25 0 -5
BITMAP
ffffe0
ffffe0
ffffe0
ffffe0
000fc0
001f80
003f00
007e00
7fffc0
7fffc0
7fffc0
7fffc0
0fc000
1f8000
3f0000
7e0000
ffffe0
ffffe0
ffffe0
ffffe0
000000
000000
000000
000000
000000
ENDCHAR
STARTCHAR [
ENCODING 91
SWIDTH 916 0
DWIDTH 22 0
BBX 22 25 0 -5
BITMAP
fff0
fff0
fff0
fff0
fc00
fc00
fc00
fc00
fc00
fc00
fc00
fc00
fc00
fc00
fc00
fc00
fff0
fff0
fff0
fff0
0000
0000
0000
0000
0000
ENDCHAR
STARTCHAR \
ENCODING 92
SWIDTH 916 0
DWIDTH 22 0
BBX 22 25 0 -5
BITMAP
fc0000
7e0000
7e0000
3f0000
1f8000
1f8000
0fc000
07e000
07e000
03f000
01f800
00fc00
00fc00
007e00
003f00
003f00
001f80
000fc0
000fc0
0007e0
000000
000000
000000
000000
000000
ENDCHAR
STARTCHAR ]
ENCODING 93
SWIDTH 916 0
DWIDTH 22 0
BBX 22 25 0 -5
BITMAP
fff0
fff0
fff0
fff0
03f0
03f0
03f0
03f0
03f0
03f0
03f0
03f0
03f0
03f0
03f0
03f0
fff0
fff0
fff0
fff0
0000
0000
0000
0000
0000
ENDCHAR
STARTCHAR ^
ENCODING 94
SWIDTH 916 0
DWIDTH 22 0
BBX 22 25 0 -5
BITMAP
01f000
03f800
07fc00
0ffe00
1fbf00
3f1f80
7e0fc0
fc07e0
000000
000000
000000
000000
000000
000000
000000
000000
000000
000000
000000
000000
000000
000000
000000
000000
000000
ENDCHAR
STARTCHAR _
ENCODING 95
SWIDTH 916 0
DWIDTH 22 0
BBX 22 25 0 -5
BITMAP
000000
000000
000000
000000
000000
000000
000000
000000
000000
000000
000000
000000
000000
000000
000000
000000
000000
000000
000000
000000
000000
fffffc
fffffc
fffffc
fffffc
ENDCHAR
STARTCHAR `
ENCODING 96
SWIDTH 916 0
DWIDTH 22 0
BBX 22 25 0 -5
BITMAP
fc00
fc00
7e00
7e00
3f00
3f00
1f80
1f80
0000
0000
0000
0000
0000
0000
0000
0000
0000
0000
0000
0000
0000
0000
0000
0000
0000
ENDCHAR
STARTCHAR a
ENCODING 97
SWIDTH 916 0
DWIDTH 22 0
BBX 22 25 0 -5
BITMAP
0000
0000
0000
0000
0000
0000
0000
1ff8
7ffc
fffe
001e
001e
1ffe
7ffe
fffe
f83e
f83e
fffe
7ffe
1fde
0000
0000
0000
0000
0000
ENDCHAR
STARTCHAR b
ENCODING 98
SWIDTH 916 0
DWIDTH 22 0
BBX 22 25 0 -5
BITMAP
f000
f000
f000
f000
f000
f000
f000
fff0
fffc
fffe
f03e
f01e
f01e
f01e
f01e
f01e
f03e
fffe
fffc
fff0
0000
0000
0000
0000
0000
ENDCHAR
STARTCHAR c
ENCODING 99
SWIDTH 916 0
DWIDTH 22 0
BBX 22 25 0 -5
BITMAP
0000
0000
0000
0000
0000
0000
0000
1ff0
7ffc
fffe
f81e
f000
f000
f000
f000
f000
f81e
fffe
7ffc
1ff0
0000
0000
0000
0000
0000
ENDCHAR
STARTCHAR d
ENCODING 100
SWIDTH 916 0
DWIDTH 22 0
BBX 22 25 0 -5
BITMAP
001e
001e
001e
001e
001e
001e
001e
1ffe
7ffe
fffe
f81e
f01e
f01e
f01e
f01e
f01e
f81e
fffe
7ffe
1ffe
0000
0000
0000
0000
0000
ENDCHAR
STARTCHAR e
ENCODING 101
SWIDTH 916 0
DWIDTH 22 0
BBX 22 25 0 -5
BITMAP
0000
0000
0000
0000
0000
0000
0000
1ff0
7ffc
fffe
f01e
f01e
fffe
fffe
fffe
f000
f000
fffe
7ffc
1ff0
0000
0000
0000
0000
0000
ENDCHAR
STARTCHAR f
ENCODING 102
SWIDTH 916 0
DWIDTH 22 0
BBX 22 25 0 -5
BITMAP
07f0
0ffc
1ffe
1e1e
1e1e
1e00
1e00
1e00
1e00
ffe0
ffe0
ffe0
1e00
1e00
1e00
1e00
1e00
1e00
1e00
1e00
0000
0000
0000
0000
0000
ENDCHAR
STARTCHAR g
ENCODING 103
SWIDTH 916 0
DWIDTH 22 0
BBX 22 25 0 -5
BITMAP
0000
0000
0000
0000
0000
0000
0000
1ffe
7ffe
fffe
f83e
f01e
f01e
f01e
f01e
f01e
f83e
fffe
7ffe
1ffe
001e
001e
fffe
7ffc
1ff0
ENDCHAR
STARTCHAR h
ENCODING 104
SWIDTH 916 0
DWIDTH 22 0
BBX 22 25 0 -5
BITMAP
f000
f000
f000
f000
f000
f000
f000
fff0
fffc
fffe
f03e
f01e
f01e
f01e
f01e
f01e
f01e
f01e
f01e
f01e
0000
0000
0000
0000
0000
ENDCHAR
STARTCHAR i
ENCODING 105
SWIDTH 916 0
DWIDTH 22 0
BBX 22 25 0 -5
BITMAP
0000
0000
0c00
1e00
1e00
0c00
0000
fe00
fe00
fe00
1e00
1e00
1e00
1e00
1e00
1e00
1e00
ffc0
ffc0
ffc0
0000
0000
0000
0000
0000
ENDCHAR
STARTCHAR j
ENCODING 106
SWIDTH 916 0
DWIDTH 22 0
BBX 22 25 0 -5
BITMAP
0000
0000
0060
00f0
00f0
0060
0000
07f0
07f0
07f0
00f0
00f0
00f0
00f0
00f0
00f0
00f0
00f0
00f0
00f0
f0f0
f0f0
fff0
7fe0
1f80
ENDCHAR
STARTCHAR k
ENCODING 107
SWIDTH 916 0
DWIDTH 22 0
BBX 22 25 0 -5
BITMAP
f000
f000
f000
f000
f000
f000
f000
f07e
f0fc
f1f8
f7e0
ffc0
ff80
ff00
ff80
ffc0
f7e0
f1f8
f0fc
f07e
0000
0000
0000
0000
0000
ENDCHAR
STARTCHAR l
ENCODING 108
SWIDTH 916 0
DWIDTH 22 0
BBX 22 25 0 -5
BITMAP
fe00
fe00
fe00
1e00
1e00
1e00
1e00
1e00
1e00
1e00
1e00
1e00
1e00
1e00
1e00
1e00
1e00
ffc0
ffc0
ffc0
0000
0000
0000
0000
0000
ENDCHAR
STARTCHAR m
ENCODING 109
SWIDTH 916 0
DWIDTH 22 0
BBX 22 25 0 -5
BITMAP
000000
000000
000000
000000
000000
000000
000000
f71e00
ffff80
ffffc0
fbf7c0
f1e3c0
f1e3c0
f1e3c0
f1e3c0
f1e3c0
f1e3c0
f1e3c0
f1e3c0
f1e3c0
000000
000000
000000
000000
000000
ENDCHAR
STARTCHAR n
ENCODING 110
SWIDTH 916 0
DWIDTH 22 0
BBX 22 25 0 -5
BITMAP
0000
0000
0000
0000
0000
0000
0000
f7f0
fffc
fffe
f83e
f01e
f01e
f01e
f01e
f01e
f01e
f01e
f01e
f01e
0000
0000
0000
0000
0000
ENDCHAR
STARTCHAR o
ENCODING 111
SWIDTH 916 0
DWIDTH 22 0
BBX 22 25 0 -5
BITMAP
0000
0000
0000
0000
0000
0000
0000
1ff0
7ffc
fffe
f83e
f01e
f01e
f01e
f01e
f01e
f83e
fffe
7ffc
1ff0
0000
0000
0000
0000
0000
ENDCHAR
STARTCHAR p
ENCODING 112
SWIDTH 916 0
DWIDTH 22 0
BBX 22 25 0 -5
BITMAP
0000
0000
0000
0000
0000
0000
0000
fff0
fffc
fffe
f03e
f01e
f01e
f01e
f01e
f01e
f03e
fffe
fffc
fff0
f000
f000
f000
f000
f000
ENDCHAR
STARTCHAR q
ENCODING 113
SWIDTH 916 0
DWIDTH 22 0
BBX 22 25 0 -5
BITMAP
0000
0000
0000
0000
0000
0000
0000
1ffe
7ffe
fffe
f81e
f01e
f01e
f01e
f01e
f01e
f81e
fffe
7ffe
1ffe
001e
001e
001e
001e
001e
ENDCHAR
STARTCHAR r
ENCODING 114
SWIDTH 916 0
DWIDTH 22 0
BBX 22 25 0 -5
BITMAP
0000
0000
0000
0000
0000
0000
0000
f7f0
fffc
fffe
f83e
f01e
f000
f000
f000
f000
f000
f000
f000
f000
0000
0000
0000
0000
0000
ENDCHAR
STARTCHAR s
ENCODING 115
SWIDTH 916 0
DWIDTH 22 0
BBX 22 25 0 -5
BITMAP
0000
0000
0000
0000
0000
0000
0000
1ff0
7ffc
fffe
f000
f000
fff0
7ffc
1ffe
001e
001e
fffe
7ffc
1ff0
0000
0000
0000
0000
0000
ENDCHAR
STARTCHAR t
ENCODING 116
SWIDTH 916 0
DWIDTH 22 0
BBX 22 25 0 -5
BITMAP
0000
0000
0000
0780
0780
0780
0780
fffe
fffe
fffe
0780
0780
0780
0780
0780
0780
078f
07ff
03fe
00f8
0000
0000
0000
0000
0000
ENDCHAR
STARTCHAR u
ENCODING 117
SWIDTH 916 0
DWIDTH 22 0
BBX 22 25 0 -5
BITMAP
0000
0000
0000
0000
0000
0000
0000
f01e
f01e
f01e
f01e
f01e
f01e
f01e
f01e
f01e
f83e
fffe
7ffe
1fde
0000
0000
0000
0000
0000
ENDCHAR
STARTCHAR v
ENCODING 118
SWIDTH 916 0
DWIDTH 22 0
BBX 22 25 0 -5
BITMAP
0000
0000
0000
0000
0000
0000
0000
f01e
f01e
783c
783c
783c
3c78
3c78
1ef0
1ef0
0fe0
0fe0
07c0
07c0
0000
0000
0000
0000
0000
ENDCHAR
STARTCHAR w
ENCODING 119
SWIDTH 916 0
DWIDTH 22 0
BBX 22 25 0 -5
BITMAP
000000
000000
000000
000000
000000
000000
000000
f0e1e0
f0e1e0
79f3c0
79f3c0
79f3c0
7bfbc0
3fbf80
3fbf80
3f1f80
1f1f00
1e0f00
1e0f00
1e0f00
000000
000000
000000
000000
000000
ENDCHAR
STARTCHAR x
ENCODING 120
SWIDTH 916 0
DWIDTH 22 0
BBX 22 25 0 -5
BITMAP
000000
000000
000000
000000
000000
000000
000000
f80f80
7c1f00
3e3e00
1f7c00
0ff800
07f000
03e000
07f000
0ff800
1f7c00
3e3e00
7c1f00
f80f80
000000
000000
000000
000000
000000
ENDCHAR
STARTCHAR y
ENCODING 121
SWIDTH 916 0
DWIDTH 22 0
BBX 22 25 0 -5
BITMAP
0000
0000
0000
0000
0000
0000
0000
f81f
f81f
7c3e
7c3e
3e7c
3e7c
1ff8
1ff8
0ff0
07f0
07e0
03e0
07c0
07c0
0f80
0f80
1f00
1f00
ENDCHAR
STARTCHAR z
ENCODING 122
SWIDTH 916 0
DWIDTH 22 0
BBX 22 25 0 -5
BITMAP
0000
0000
0000
0000
0000
0000
0000
fffe
fffe
fffe
007c
00f8
7ffc
7ffc
7ffc
3e00
7c00
fffe
fffe
fffe
0000
0000
0000
0000
0000
ENDCHAR
STARTCHAR {
ENCODING 123
SWIDTH 916 0
DWIDTH 22 0
BBX 22 25 0 -5
BITMAP
00f8
03f8
07f8
0fc0
0f80
0f80
0f80
0f80
3f00
fc00
fc00
3f00
0f80
0f80
0f80
0f80
0fc0
07f8
03f8
00f8
0000
0000
0000
0000
0000
ENDCHAR
STARTCHAR |
ENCODING 124
SWIDTH 916 0
DWIDTH 22 0
BBX 22 25 0 -5
BITMAP
f8
f8
f8
f8
f8
f8
f8
f8
f8
f8
f8
f8
f8
f8
f8
f8
f8
f8
f8
f8
f8
f8
f8
f8
f8
ENDCHAR
STARTCHAR }
ENCODING 125
SWIDTH 916 0
DWIDTH 22 0
BBX 22 25 0 -5
BITMAP
f000
fe00
ff00
1f80
0f80
0f80
0f80
0f80
07e0
01f8
01f8
07e0
0f80
0f80
0f80
0f80
1f80
ff00
fe00
f800
0000
0000
0000
0000
0000
ENDCHAR
STARTCHAR ~
ENCODING 126
SWIDTH 916 0
DWIDTH 22 0
BBX 22 25 0 -5
BITMAP
000000
000000
000000
000000
000000
000000
1f0020
7fc0e0
fff3e0
ffffe0
ffffe0
f9ffe0
e07fc0
801f00
000000
000000
000000
000000
000000
000000
000000
000000
000000
000000
000000
ENDCHAR
STARTCHAR C177
ENCODING 127
SWIDTH 916 0
DWIDTH 22 0
BBX 22 25 0 -5
BITMAP
ffffe0
ffffe0
ffffe0
ffffe0
ffffe0
ffffe0
ffffe0
ffffe0
ffffe0
ffffe0
ffffe0
ffffe0
ffffe0
ffffe0
ffffe0
ffffe0
ffffe0
ffffe0
ffffe0
ffffe0
000000
000000
000000
000000
000000
ENDCHAR
ENDFONT
